<mxfile host="app.diagrams.net" modified="2024-01-26T13:22:20.832Z" agent="Mozilla/5.0 (X11; Linux x86_64) AppleWebKit/537.36 (KHTML, like Gecko) Chrome/121.0.0.0 Safari/537.36" version="23.0.2" etag="J-UAR1SM0sDDRswNsgub" type="github">
  <diagram name="第 1 页" id="A0qKB-Lky0zdkzVIlaLn">
    <mxGraphModel>
      <root>
        <mxCell id="0" />
        <mxCell id="1" parent="0" />
      </root>
    </mxGraphModel>
  </diagram>
</mxfile>
